<svg width="800" height="800" viewBox="0 0 800 800" fill="none" xmlns="http://www.w3.org/2000/svg">
<path d="M553.9 483.2C560.186 477.128 568.607 473.768 577.346 473.844C586.086 473.92 594.447 477.426 600.627 483.606C606.807 489.786 610.313 498.147 610.389 506.887C610.465 515.627 607.105 524.047 601.033 530.333L494.966 636.4C451.206 680.161 391.853 704.745 329.966 704.745C268.079 704.745 208.727 680.161 164.966 636.4C121.206 592.639 96.6211 533.287 96.6211 471.4C96.6211 409.513 121.206 350.161 164.966 306.4L353.566 117.867C368.941 101.948 387.332 89.2513 407.666 80.5165C428 71.7817 449.87 67.1839 471.999 66.9916C494.129 66.7993 516.076 71.0163 536.559 79.3964C557.041 87.7766 575.65 100.152 591.299 115.801C606.948 131.45 619.323 150.058 627.703 170.541C636.083 191.024 640.3 212.97 640.108 235.1C639.916 257.23 635.318 279.1 626.583 299.434C617.848 319.768 605.151 338.159 589.233 353.533L400.7 542.133C381.944 560.889 356.507 571.425 329.983 571.425C303.459 571.425 278.022 560.889 259.266 542.133C240.511 523.378 229.975 497.941 229.975 471.417C229.975 444.893 240.511 419.455 259.266 400.7L412.466 247.5C415.561 244.403 419.236 241.946 423.28 240.269C427.324 238.592 431.66 237.728 436.038 237.727C440.416 237.725 444.752 238.586 448.797 240.26C452.843 241.934 456.519 244.389 459.616 247.483C462.713 250.578 465.17 254.253 466.847 258.297C468.524 262.342 469.388 266.677 469.39 271.055C469.391 275.433 468.53 279.769 466.856 283.815C465.182 287.86 462.728 291.536 459.633 294.633L306.4 447.833C303.305 450.93 300.85 454.607 299.176 458.652C297.502 462.698 296.641 467.034 296.643 471.412C296.644 475.79 297.508 480.125 299.185 484.17C300.862 488.214 303.319 491.889 306.416 494.983C309.513 498.078 313.19 500.533 317.235 502.207C321.281 503.881 325.617 504.742 329.995 504.74C334.373 504.739 338.708 503.875 342.753 502.198C346.797 500.521 350.472 498.064 353.566 494.967L542.1 306.4C551.651 297.175 559.269 286.141 564.51 273.94C569.751 261.74 572.509 248.618 572.625 235.34C572.74 222.062 570.21 208.894 565.182 196.605C560.154 184.315 552.728 173.15 543.339 163.761C533.95 154.371 522.785 146.946 510.495 141.918C498.205 136.89 485.037 134.36 471.76 134.475C458.482 134.59 445.36 137.349 433.159 142.59C420.959 147.831 409.924 155.449 400.7 165L212.133 353.567C196.336 368.971 183.754 387.359 175.118 407.663C166.483 427.968 161.964 449.785 161.826 471.849C161.688 493.914 165.932 515.786 174.313 536.197C182.694 556.608 195.044 575.152 210.647 590.753C226.25 606.354 244.796 618.702 265.208 627.079C285.621 635.457 307.493 639.698 329.557 639.557C351.622 639.415 373.438 634.894 393.742 626.256C414.045 617.617 432.431 605.033 447.833 589.233L553.9 483.2Z" fill="#1D4ED6"/>
</svg>
