<svg width="800" height="800" viewBox="0 0 800 800" fill="none" xmlns="http://www.w3.org/2000/svg">
<path d="M516.66 183.331L610.94 277.612M100 699.99L101.582 688.916C107.179 649.74 109.977 630.15 116.343 611.86C121.992 595.63 129.708 580.196 139.302 565.943C150.114 549.876 164.106 535.883 192.091 507.9L580.357 119.632C606.393 93.5967 648.603 93.5967 674.64 119.632C700.673 145.667 700.673 187.878 674.64 213.913L279.248 609.303C253.86 634.693 241.166 647.386 226.707 657.48C213.873 666.44 200.031 673.863 185.466 679.596C169.057 686.056 151.458 689.606 116.264 696.706L100 699.99Z" stroke="#1D4ED8" stroke-width="66.6667" stroke-linecap="round" stroke-linejoin="round"/>
</svg>
