<svg width="800" height="800" viewBox="0 0 800 800" fill="none" xmlns="http://www.w3.org/2000/svg">
<path d="M133.334 200H666.667M533.334 200L524.314 172.936C515.571 146.708 511.197 133.595 503.091 123.899C495.931 115.338 486.737 108.711 476.351 104.626C464.587 100 450.767 100 423.121 100H376.881C349.234 100 335.414 100 323.651 104.626C313.265 108.711 304.07 115.338 296.91 123.899C288.802 133.595 284.431 146.708 275.689 172.936L266.667 200M600.001 200V540C600.001 596.007 600.001 624.007 589.101 645.4C579.514 664.217 564.217 679.513 545.401 689.1C524.007 700 496.007 700 440.001 700H360.001C303.995 700 275.993 700 254.602 689.1C235.785 679.513 220.487 664.217 210.9 645.4C200.001 624.007 200.001 596.007 200.001 540V200M466.667 333.333V566.667M333.334 333.333V566.667" stroke="#BE123C" stroke-width="66.6667" stroke-linecap="round" stroke-linejoin="round"/>
</svg>
