<svg width="800" height="800" viewBox="0 0 800 800" fill="none" xmlns="http://www.w3.org/2000/svg">
<path d="M691.523 110.951C678.506 97.9331 657.399 97.9331 644.383 110.951L401.236 354.097L158.091 110.951C145.074 97.9331 123.968 97.9331 110.951 110.951C97.9331 123.968 97.9331 145.074 110.951 158.091L354.096 401.237L110.951 644.38C97.9338 657.4 97.9338 678.504 110.951 691.524C123.969 704.54 145.074 704.54 158.092 691.524L401.236 448.377L644.383 691.524C657.399 704.54 678.506 704.54 691.523 691.524C704.539 678.504 704.539 657.4 691.523 644.384L448.376 401.237L691.523 158.091C704.539 145.074 704.539 123.968 691.523 110.951Z" fill="#2563EB"/>
</svg>
