<svg width="800" height="800" viewBox="0 0 800 800" fill="none" xmlns="http://www.w3.org/2000/svg">
<path fill-rule="evenodd" clip-rule="evenodd" d="M400.001 733.334C584.095 733.334 733.335 584.094 733.335 400C733.335 215.905 584.095 66.667 400.001 66.667C215.906 66.667 66.668 215.905 66.668 400C66.668 584.094 215.906 733.334 400.001 733.334ZM598.455 424.997H496.851C492.251 442.87 482.835 458.814 470.065 471.354L520.875 559.357C562.698 527.584 591.631 479.724 598.455 424.997ZM477.591 584.394L426.775 496.377C418.255 498.737 409.275 500 400.001 500C390.728 500 381.748 498.737 373.225 496.374L322.408 584.39C346.268 594.444 372.485 600 400.001 600C427.518 600 453.735 594.444 477.591 584.394ZM279.128 559.354L329.937 471.35C317.168 458.81 307.75 442.87 303.151 424.997H201.548C208.371 479.724 237.305 527.584 279.128 559.354ZM598.455 374.997H496.851C492.248 357.124 482.831 341.184 470.061 328.646L520.871 240.643C562.695 272.414 591.628 320.272 598.455 374.997ZM477.591 215.608C453.731 205.556 427.515 200 400.001 200C372.488 200 346.268 205.557 322.41 215.608L373.228 303.625C381.748 301.263 390.728 300 400.001 300C409.275 300 418.251 301.263 426.775 303.625L477.591 215.608ZM329.939 328.648L279.13 240.644C237.308 272.415 208.374 320.272 201.549 374.997H303.153C307.754 357.124 317.171 341.187 329.939 328.648Z" fill="#2563EB"/>
</svg>
